<svg width="606" height="618" viewBox="0 0 606 618" fill="none" xmlns="http://www.w3.org/2000/svg">
<path d="M587.859 481.57H312.859V468.07C312.86 466.877 313.335 465.733 314.178 464.889C315.022 464.046 316.166 463.571 317.359 463.57H583.359C584.552 463.571 585.696 464.046 586.539 464.889C587.383 465.733 587.858 466.877 587.859 468.07V481.57Z" fill="#3178C6"/>
<path d="M266.621 119.512C267.292 121.278 267.929 123.073 268.515 124.849L267.18 125.289C266.304 122.63 265.315 119.942 264.254 117.334L265.556 116.805C265.92 117.701 266.275 118.603 266.621 119.512ZM262.062 108.98L260.799 109.597C259.562 107.063 258.225 104.546 256.824 102.113L258.042 101.413C259.458 103.872 260.811 106.418 262.062 108.98ZM270.924 133.072C271.631 135.833 272.25 138.649 272.765 141.441L271.383 141.695C270.874 138.935 270.262 136.151 269.562 133.421L270.924 133.072ZM253.513 94.1381L252.345 94.9211C250.778 92.5857 249.108 90.2751 247.382 88.0539L248.492 87.1917C250.237 89.439 251.927 91.7759 253.513 94.1381L253.513 94.1381ZM274.025 149.918C274.347 152.744 274.573 155.619 274.699 158.462L273.295 158.524C273.171 155.712 272.947 152.87 272.629 150.076L274.025 149.918ZM243.003 80.6093L241.956 81.5462C240.082 79.4501 238.111 77.3932 236.101 75.4338L237.082 74.428C239.115 76.4097 241.107 78.489 243.003 80.6093ZM274.781 167.045C274.709 169.896 274.538 172.778 274.27 175.61L272.871 175.478C273.135 172.678 273.305 169.829 273.376 167.01L274.781 167.045ZM230.748 68.6665L229.838 69.7375C227.693 67.9181 225.459 66.1496 223.197 64.4832L224.031 63.3515C226.318 65.0374 228.578 66.8258 230.748 68.6665ZM273.171 184.118C272.709 186.931 272.144 189.76 271.492 192.528L270.124 192.205C270.769 189.469 271.328 186.671 271.785 183.889L273.171 184.118ZM216.965 58.5081L216.21 59.6934C213.837 58.1826 211.382 56.7351 208.912 55.3906L209.583 54.1563C212.082 55.5162 214.565 56.9801 216.965 58.5081ZM269.241 200.802C268.401 203.52 267.456 206.245 266.432 208.902L265.121 208.396C266.133 205.769 267.068 203.075 267.899 200.387L269.241 200.802ZM201.921 50.317L201.335 51.5939C198.778 50.4201 196.148 49.3189 193.516 48.3215L194.015 47.0074C196.675 48.0164 199.335 49.1299 201.921 50.317ZM263.078 216.79C261.876 219.37 260.569 221.941 259.195 224.431L257.965 223.752C259.324 221.29 260.615 218.748 261.804 216.197L263.078 216.79ZM185.898 44.2446L185.49 45.5887C182.8 44.7738 180.043 44.0406 177.297 43.4098L177.612 42.0408C180.389 42.6782 183.177 43.42 185.898 44.2446ZM254.803 231.787C253.261 234.179 251.618 236.547 249.919 238.825L248.792 237.986C250.472 235.733 252.097 233.392 253.622 231.026L254.803 231.787ZM169.192 40.4094L168.972 41.7965C166.19 41.3556 163.358 41.0062 160.554 40.758L160.678 39.3588C163.514 39.6096 166.378 39.9628 169.192 40.4094ZM244.566 245.512C242.714 247.669 240.763 249.79 238.769 251.813L237.768 250.827C239.74 248.826 241.669 246.73 243.5 244.597L244.566 245.512ZM152.11 38.8961L152.083 40.3008C149.266 40.2468 146.411 40.2901 143.597 40.4301L143.528 39.0268C146.374 38.8848 149.261 38.8408 152.11 38.8961ZM232.555 257.699C230.422 259.584 228.197 261.418 225.941 263.151L225.085 262.036C227.316 260.323 229.516 258.51 231.625 256.647L232.555 257.699ZM134.986 39.7497L135.153 41.1455C132.359 41.4792 129.541 41.9149 126.779 42.4397L126.517 41.0595C129.311 40.5286 132.16 40.0882 134.986 39.7497ZM218.966 268.131C216.596 269.703 214.14 271.213 211.666 272.619L210.971 271.397C213.417 270.007 215.846 268.514 218.189 266.96L218.966 268.131ZM118.159 42.9475L118.515 44.3065C115.798 45.019 113.067 45.8358 110.397 46.7336L109.949 45.402C112.648 44.4938 115.411 43.6681 118.159 42.9475L118.159 42.9475ZM204.075 276.596C201.515 277.827 198.876 278.988 196.231 280.046L195.709 278.741C198.325 277.695 200.934 276.547 203.466 275.329L204.075 276.596ZM102.46 49.7063C99.8561 50.7814 97.2593 51.9582 94.7416 53.2041L94.1183 51.9452C96.6646 50.6848 99.2905 49.4947 101.923 48.407L102.46 49.7063ZM87.2802 57.2201C84.847 58.6408 82.4355 60.1612 80.1127 61.7402L79.323 60.5784C81.6719 58.9813 84.1108 57.4432 86.5721 56.0067L87.2802 57.2201ZM73.2744 66.7436C71.0651 68.4807 68.888 70.3164 66.8044 72.2001L65.8621 71.158C67.9697 69.2526 70.1715 67.3958 72.4062 65.6396L73.2744 66.7436ZM60.7245 78.0918C58.7721 80.1187 56.8672 82.2377 55.0623 84.3891L53.9857 83.4861C55.8113 81.3099 57.738 79.1673 59.7124 77.1173L60.7245 78.0918ZM49.8437 91.0615C48.1857 93.3384 46.5873 95.699 45.0928 98.0759L43.9036 97.3287C45.4145 94.9243 47.031 92.537 48.7077 90.234L49.8437 91.0615ZM40.8312 105.4C39.4998 107.878 38.2367 110.434 37.0768 112.998L35.7967 112.419C36.9697 109.826 38.2472 107.241 39.5931 104.735L40.8312 105.4ZM33.849 120.835C32.8658 123.476 31.9614 126.181 31.1617 128.875L29.8149 128.476C30.6235 125.751 31.5377 123.015 32.5322 120.345L33.849 120.835ZM29.0284 137.08C28.4139 139.831 27.887 142.635 27.4628 145.414L26.0736 145.202C26.5028 142.392 27.0355 139.556 27.6574 136.774L29.0284 137.08ZM26.4728 153.837C26.2399 156.645 26.1027 159.496 26.0644 162.31L24.6595 162.29C24.6982 159.445 24.8372 156.562 25.0721 153.721L26.4728 153.837ZM26.2419 170.791C26.3981 173.6 26.6546 176.439 27.0041 179.231L25.6099 179.406C25.2563 176.582 24.9969 173.71 24.839 170.869L26.2419 170.791ZM28.3467 187.598C28.8876 190.356 29.5314 193.133 30.2609 195.853L28.9033 196.216C28.1658 193.466 27.5146 190.657 26.9676 187.868L28.3467 187.598Z" fill="#E6E6E6"/>
<path d="M199.095 335.102C190.737 335.08 182.604 332.391 175.88 327.428C169.155 322.464 164.189 315.484 161.705 307.504C135.181 317.648 105.905 317.983 79.1554 308.451C52.4054 298.919 29.9399 280.145 15.8078 255.513C1.67571 230.882 -3.1936 202.013 2.07748 174.108C7.34856 146.204 22.4133 121.1 44.5568 103.321C66.7002 85.5423 94.466 76.2572 122.85 77.1396C151.234 78.022 178.369 89.0138 199.366 108.134C220.362 127.254 233.838 153.245 237.366 181.423C240.894 209.601 234.24 238.112 218.606 261.818C226.108 266.119 231.98 272.778 235.307 280.76C238.635 288.742 239.234 297.6 237.009 305.956C234.784 314.313 229.861 321.701 223.005 326.972C216.149 332.242 207.743 335.101 199.095 335.102V335.102ZM163.021 304.843L163.319 305.909C165.984 315.411 172.314 323.466 180.916 328.302C189.519 333.137 199.69 334.358 209.192 331.696C218.695 329.034 226.751 322.706 231.589 314.105C236.427 305.503 237.65 295.332 234.99 285.829C233.627 280.999 231.304 276.493 228.162 272.579C225.02 268.665 221.121 265.424 216.7 263.049L215.724 262.527L216.341 261.609C231.978 238.366 238.767 210.289 235.478 182.469C232.189 154.65 219.039 128.93 198.414 109.974C177.788 91.0183 151.052 80.0816 123.055 79.1472C95.0569 78.2129 67.6513 87.3428 45.8078 104.881C23.9642 122.42 9.12906 147.206 3.99255 174.744C-1.14396 202.282 3.75831 230.75 17.8104 254.983C31.8624 279.217 54.1338 297.613 80.5856 306.835C107.037 316.057 135.918 315.494 161.991 305.248L163.021 304.843Z" fill="#3F3D56"/>
<path d="M183.745 184.19H54.3047C53.5105 184.19 52.7242 184.034 51.9905 183.73C51.2568 183.426 50.5901 182.98 50.0286 182.419C49.467 181.857 49.0216 181.191 48.7177 180.457C48.4137 179.723 48.2573 178.937 48.2573 178.143C48.2573 177.349 48.4137 176.562 48.7177 175.829C49.0216 175.095 49.467 174.428 50.0286 173.867C50.5901 173.305 51.2568 172.86 51.9905 172.556C52.7242 172.252 53.5105 172.095 54.3047 172.095H183.745C184.539 172.095 185.326 172.252 186.059 172.556C186.793 172.86 187.46 173.305 188.021 173.867C188.583 174.428 189.028 175.095 189.332 175.829C189.636 176.562 189.792 177.349 189.792 178.143C189.792 178.937 189.636 179.723 189.332 180.457C189.028 181.191 188.583 181.857 188.021 182.419C187.46 182.98 186.793 183.426 186.059 183.73C185.326 184.034 184.539 184.19 183.745 184.19H183.745Z" fill="#3178C6"/>
<path d="M183.745 202.682H54.3047C53.5105 202.682 52.7242 202.525 51.9905 202.222C51.2568 201.918 50.5901 201.472 50.0286 200.911C49.467 200.349 49.0216 199.682 48.7177 198.949C48.4137 198.215 48.2573 197.429 48.2573 196.635C48.2573 195.84 48.4137 195.054 48.7177 194.32C49.0216 193.587 49.467 192.92 50.0286 192.358C50.5901 191.797 51.2568 191.351 51.9905 191.047C52.7242 190.744 53.5105 190.587 54.3047 190.587H183.745C184.539 190.587 185.326 190.744 186.059 191.047C186.793 191.351 187.46 191.797 188.021 192.358C188.583 192.92 189.028 193.587 189.332 194.32C189.636 195.054 189.792 195.84 189.792 196.635C189.792 197.429 189.636 198.215 189.332 198.949C189.028 199.682 188.583 200.349 188.021 200.911C187.46 201.472 186.793 201.918 186.059 202.222C185.326 202.525 184.539 202.682 183.745 202.682H183.745Z" fill="#3178C6"/>
<path d="M183.745 221.174H54.305C52.7024 221.172 51.1662 220.533 50.0337 219.4C48.9012 218.266 48.2651 216.729 48.2651 215.126C48.2651 213.523 48.9012 211.986 50.0337 210.852C51.1662 209.718 52.7024 209.08 54.305 209.078H183.745C185.349 209.078 186.887 209.716 188.022 210.85C189.156 211.984 189.793 213.522 189.793 215.126C189.793 216.73 189.156 218.268 188.022 219.402C186.887 220.536 185.349 221.174 183.745 221.174H183.745Z" fill="#3178C6"/>
<path d="M583.359 617.503H317.359C316.033 617.501 314.762 616.974 313.825 616.037C312.888 615.099 312.36 613.828 312.359 612.503V467.905C312.36 466.579 312.888 465.308 313.825 464.371C314.762 463.434 316.033 462.906 317.359 462.905H583.359C584.685 462.906 585.955 463.434 586.893 464.371C587.83 465.308 588.357 466.579 588.359 467.905V612.503C588.357 613.828 587.83 615.099 586.893 616.037C585.955 616.974 584.685 617.501 583.359 617.503V617.503ZM317.359 464.905C316.564 464.906 315.801 465.222 315.239 465.784C314.676 466.347 314.36 467.109 314.359 467.905V612.503C314.36 613.298 314.676 614.061 315.239 614.623C315.801 615.186 316.564 615.502 317.359 615.503H583.359C584.154 615.502 584.917 615.186 585.479 614.623C586.042 614.061 586.358 613.298 586.359 612.503V467.905C586.358 467.109 586.042 466.347 585.479 465.784C584.917 465.222 584.154 464.906 583.359 464.905H317.359Z" fill="#3F3D56"/>
<path d="M324.551 479.262C327.971 479.262 330.743 476.49 330.743 473.07C330.743 469.65 327.971 466.877 324.551 466.877C321.131 466.877 318.359 469.65 318.359 473.07C318.359 476.49 321.131 479.262 324.551 479.262Z" fill="white"/>
<path d="M341.359 479.262C344.779 479.262 347.551 476.49 347.551 473.07C347.551 469.65 344.779 466.877 341.359 466.877C337.939 466.877 335.167 469.65 335.167 473.07C335.167 476.49 337.939 479.262 341.359 479.262Z" fill="white"/>
<path d="M358.166 479.262C361.586 479.262 364.359 476.49 364.359 473.07C364.359 469.65 361.586 466.877 358.166 466.877C354.746 466.877 351.974 469.65 351.974 473.07C351.974 476.49 354.746 479.262 358.166 479.262Z" fill="white"/>
<path d="M372.141 265.497H339.43C338.748 265.499 338.074 265.346 337.459 265.049C336.844 264.753 336.305 264.321 335.881 263.786C335.463 263.266 335.168 262.658 335.019 262.008C334.869 261.358 334.869 260.683 335.019 260.032C337.962 247.092 337.962 233.656 335.019 220.716C334.869 220.065 334.869 219.39 335.019 218.74C335.168 218.09 335.463 217.482 335.881 216.962C336.305 216.427 336.844 215.995 337.459 215.699C338.074 215.402 338.748 215.249 339.43 215.251H372.141C373.227 215.248 374.277 215.639 375.097 216.351C375.917 217.062 376.451 218.047 376.601 219.122C378.691 233.213 378.691 247.535 376.601 261.626C376.451 262.701 375.917 263.686 375.097 264.398C374.277 265.109 373.227 265.5 372.141 265.497Z" fill="#3178C6"/>
<path d="M542.311 371.52H509.6C508.514 371.522 507.464 371.131 506.644 370.42C505.824 369.708 505.29 368.723 505.14 367.648C503.05 353.557 503.05 339.235 505.14 325.145C505.29 324.069 505.824 323.085 506.644 322.373C507.464 321.661 508.514 321.27 509.6 321.273H542.311C542.993 321.271 543.667 321.425 544.282 321.721C544.896 322.017 545.436 322.449 545.86 322.984C546.278 323.504 546.573 324.112 546.722 324.762C546.872 325.412 546.872 326.088 546.723 326.738C543.779 339.678 543.779 353.115 546.723 366.055C546.872 366.705 546.872 367.381 546.722 368.031C546.573 368.681 546.278 369.289 545.86 369.809C545.436 370.343 544.896 370.775 544.282 371.072C543.667 371.368 542.993 371.521 542.311 371.52V371.52Z" fill="#FF6584"/>
<path d="M521.138 330.846C522.409 329.925 523.463 328.735 524.225 327.362C524.987 325.989 525.439 324.465 525.548 322.898C525.658 321.332 525.422 319.76 524.859 318.294C524.295 316.828 523.417 315.504 522.286 314.414L525.139 192.643L506.286 195.415L506.485 315.179C504.78 317.201 503.876 319.777 503.943 322.42C504.011 325.063 505.046 327.59 506.852 329.521C508.658 331.452 511.11 332.654 513.743 332.898C516.376 333.142 519.007 332.412 521.138 330.846V330.846Z" fill="#FFB8B8"/>
<path d="M370.34 208.757C370.672 209.2 370.968 209.669 371.226 210.158L420.55 215.323L435.643 190.584L451.739 199.368L429.81 237.999L369.313 222.615C367.788 224.104 365.845 225.093 363.744 225.451C361.644 225.809 359.483 225.519 357.551 224.62C355.619 223.72 354.007 222.254 352.928 220.415C351.85 218.577 351.356 216.454 351.514 214.329C351.672 212.203 352.473 210.176 353.81 208.517C355.148 206.858 356.959 205.645 359.003 205.04C361.047 204.435 363.226 204.467 365.251 205.131C367.276 205.795 369.051 207.06 370.34 208.757H370.34Z" fill="#FFB8B8"/>
<path d="M401.808 453.563L389.775 451.219L399.144 362.313L418.904 365.772L401.808 453.563Z" fill="#FFB8B8"/>
<path d="M381.849 446.107L405.057 450.627L402.211 465.239L364.39 457.874C364.764 455.955 365.512 454.128 366.592 452.498C367.671 450.868 369.062 449.467 370.683 448.375C372.304 447.282 374.124 446.519 376.04 446.13C377.956 445.741 379.93 445.733 381.849 446.107V446.107Z" fill="#2F2E41"/>
<path d="M487.574 453.855L475.314 453.854L469.482 387.415H487.576L487.574 453.855Z" fill="#FFB8B8"/>
<path d="M466.557 450.352H490.201V465.238H451.67C451.67 463.283 452.056 461.348 452.804 459.541C453.552 457.735 454.648 456.094 456.031 454.712C457.413 453.329 459.054 452.233 460.86 451.485C462.666 450.737 464.602 450.352 466.557 450.352Z" fill="#2F2E41"/>
<path d="M437.763 229.909L393.441 369.787C393.441 369.787 448.917 405.879 498.377 397.859C511.354 342.617 510.508 291.014 489.897 244.613L437.763 229.909Z" fill="#2F2E41"/>
<path d="M484.424 157.789C501.85 157.789 515.977 143.663 515.977 126.237C515.977 108.811 501.85 94.6838 484.424 94.6838C466.998 94.6838 452.871 108.811 452.871 126.237C452.871 143.663 466.998 157.789 484.424 157.789Z" fill="#2F2E41"/>
<path d="M479.452 159.904C493.016 159.904 504.013 148.907 504.013 135.343C504.013 121.778 493.016 110.781 479.452 110.781C465.887 110.781 454.891 121.778 454.891 135.343C454.891 148.907 465.887 159.904 479.452 159.904Z" fill="#FFB8B8"/>
<path d="M435.757 181.117C435.545 182.437 439.099 195.821 439.099 195.821L430.286 250.415L489.896 248.624L523.316 182.454C524.508 181.932 517.825 174.209 513.29 171.091C507.033 166.791 437.044 173.093 435.757 181.117Z" fill="#3F3D56"/>
<path d="M439.099 181.785L435.757 180.448C435.757 180.448 423.726 199.163 427.736 201.168C431.747 203.174 441.772 207.852 441.772 207.852L439.099 181.785Z" fill="#3F3D56"/>
<path d="M515.295 177.106L523.316 182.454C523.316 182.454 529.999 208.521 523.316 207.852C516.632 207.184 501.259 211.194 500.591 209.857C499.922 208.52 515.295 177.106 515.295 177.106Z" fill="#3F3D56"/>
<path d="M480.619 130.924C493.31 130.924 503.599 124.751 503.599 117.136C503.599 109.521 493.31 103.348 480.619 103.348C467.927 103.348 457.639 109.521 457.639 117.136C457.639 124.751 467.927 130.924 480.619 130.924Z" fill="#2F2E41"/>
<path d="M483.968 100.259C482.285 99.0081 481.086 97.2152 480.571 95.1827C480.057 93.1502 480.26 91.0024 481.145 89.1019C482.558 86.2777 485.341 84.4425 488.001 82.7404L498.852 75.7968C503.385 72.8961 508.075 69.933 513.376 69.0058C522.065 67.4859 531.041 71.9079 536.763 78.6219C542.484 85.3359 545.383 94.021 547.032 102.687C548.681 111.353 549.209 120.203 550.881 128.864C553.475 142.295 559.035 155.472 568.674 165.178C578.314 174.883 592.403 180.679 605.886 178.372C599.95 183.83 592.321 187.086 584.273 187.593C576.252 188.06 568.25 186.409 561.07 182.807C554.438 179.532 548.542 174.941 543.741 169.314C538.94 163.687 535.335 157.142 533.145 150.077C528.755 135.627 530.598 119.966 527.248 105.239C525.923 99.415 523.532 93.4313 518.659 89.9764C513.787 86.5215 505.927 86.8404 502.805 91.9321C505.644 91.0065 508.434 94.5943 507.551 97.4475C506.667 100.301 503.425 101.864 500.438 101.834C497.452 101.804 494.634 100.554 491.865 99.4328C489.097 98.3113 486.138 97.2806 483.183 97.7144" fill="#2F2E41"/>
<path d="M126.141 347.497H93.4299C92.7474 347.499 92.0735 347.346 91.4588 347.049C90.8441 346.753 90.3046 346.321 89.8808 345.786C89.4627 345.266 89.1679 344.658 89.0184 344.008C88.869 343.358 88.8689 342.683 89.018 342.033C91.9616 329.092 91.9616 315.656 89.018 302.716C88.8689 302.065 88.869 301.39 89.0184 300.74C89.1679 300.09 89.4627 299.482 89.8808 298.962C90.3046 298.427 90.8441 297.995 91.4588 297.699C92.0735 297.402 92.7474 297.249 93.4299 297.251H126.141C127.227 297.248 128.277 297.639 129.096 298.351C129.916 299.062 130.451 300.047 130.601 301.122C132.69 315.213 132.69 329.535 130.601 343.626C130.451 344.701 129.916 345.686 129.096 346.397C128.277 347.109 127.227 347.5 126.141 347.497V347.497Z" fill="#CCCCCC"/>
<path d="M507.358 528.07H377.918C376.314 528.07 374.776 527.433 373.642 526.299C372.508 525.165 371.871 523.627 371.871 522.023C371.871 520.419 372.508 518.881 373.642 517.747C374.776 516.613 376.314 515.976 377.918 515.976H507.358C508.962 515.976 510.5 516.613 511.634 517.747C512.768 518.881 513.406 520.419 513.406 522.023C513.406 523.627 512.768 525.165 511.634 526.299C510.5 527.433 508.962 528.07 507.358 528.07V528.07Z" fill="#CCCCCC"/>
<path d="M507.358 546.562H377.918C376.314 546.562 374.776 545.925 373.642 544.791C372.508 543.657 371.871 542.119 371.871 540.515C371.871 538.911 372.508 537.373 373.642 536.239C374.776 535.104 376.314 534.467 377.918 534.467H507.358C508.962 534.467 510.5 535.104 511.634 536.239C512.768 537.373 513.406 538.911 513.406 540.515C513.406 542.119 512.768 543.657 511.634 544.791C510.5 545.925 508.962 546.562 507.358 546.562V546.562Z" fill="#CCCCCC"/>
<path d="M507.358 565.054H377.918C376.315 565.052 374.779 564.414 373.646 563.28C372.514 562.146 371.878 560.609 371.878 559.006C371.878 557.404 372.514 555.866 373.646 554.733C374.779 553.599 376.315 552.961 377.918 552.959H507.358C508.153 552.957 508.94 553.113 509.675 553.417C510.409 553.72 511.077 554.165 511.639 554.727C512.202 555.289 512.648 555.956 512.952 556.69C513.257 557.424 513.413 558.211 513.413 559.006C513.413 559.801 513.257 560.588 512.952 561.322C512.648 562.056 512.202 562.723 511.639 563.285C511.077 563.847 510.409 564.292 509.675 564.596C508.94 564.899 508.153 565.055 507.358 565.054V565.054Z" fill="#CCCCCC"/>
</svg>
